<mxfile host="app.diagrams.net" modified="2023-09-19T02:44:36.062Z" agent="Mozilla/5.0 (X11; Linux x86_64) AppleWebKit/537.36 (KHTML, like Gecko) Chrome/109.0.0.0 Safari/537.36" etag="waEtxkb9w97Qwvgo7t8-" version="21.7.5" type="device" pages="2">
  <diagram name="Page-1" id="fMtQGgiWAxwI3SxDrmNZ">
    <mxGraphModel dx="1054" dy="566" grid="1" gridSize="10" guides="1" tooltips="1" connect="1" arrows="1" fold="1" page="1" pageScale="1" pageWidth="850" pageHeight="1100" math="0" shadow="0">
      <root>
        <mxCell id="0" />
        <mxCell id="1" parent="0" />
        <mxCell id="AcWjnE61uEaoLL16DM_o-3" value="" style="rounded=0;whiteSpace=wrap;html=1;" vertex="1" parent="1">
          <mxGeometry x="280" y="100" width="250" height="400" as="geometry" />
        </mxCell>
        <mxCell id="AcWjnE61uEaoLL16DM_o-4" value="" style="ellipse;whiteSpace=wrap;html=1;" vertex="1" parent="1">
          <mxGeometry x="345" y="140" width="135" height="80" as="geometry" />
        </mxCell>
        <mxCell id="AcWjnE61uEaoLL16DM_o-5" value="mengisi buku catatan" style="text;html=1;strokeColor=none;fillColor=none;align=center;verticalAlign=middle;whiteSpace=wrap;rounded=0;" vertex="1" parent="1">
          <mxGeometry x="350" y="155" width="120" height="40" as="geometry" />
        </mxCell>
        <mxCell id="AcWjnE61uEaoLL16DM_o-6" value="" style="ellipse;whiteSpace=wrap;html=1;" vertex="1" parent="1">
          <mxGeometry x="345" y="260" width="135" height="80" as="geometry" />
        </mxCell>
        <mxCell id="AcWjnE61uEaoLL16DM_o-7" value="membaca buku catatan" style="text;html=1;strokeColor=none;fillColor=none;align=center;verticalAlign=middle;whiteSpace=wrap;rounded=0;" vertex="1" parent="1">
          <mxGeometry x="360" y="285" width="110" height="30" as="geometry" />
        </mxCell>
        <mxCell id="AcWjnE61uEaoLL16DM_o-8" value="" style="ellipse;whiteSpace=wrap;html=1;" vertex="1" parent="1">
          <mxGeometry x="345" y="380" width="140" height="80" as="geometry" />
        </mxCell>
        <mxCell id="AcWjnE61uEaoLL16DM_o-9" value="rekap buku catatan" style="text;html=1;strokeColor=none;fillColor=none;align=center;verticalAlign=middle;whiteSpace=wrap;rounded=0;" vertex="1" parent="1">
          <mxGeometry x="360" y="405" width="110" height="35" as="geometry" />
        </mxCell>
        <mxCell id="AcWjnE61uEaoLL16DM_o-10" value="catatan pengunjung perpus" style="text;html=1;strokeColor=none;fillColor=none;align=center;verticalAlign=middle;whiteSpace=wrap;rounded=0;" vertex="1" parent="1">
          <mxGeometry x="325" y="85" width="175" height="70" as="geometry" />
        </mxCell>
        <mxCell id="AcWjnE61uEaoLL16DM_o-12" value="anggota" style="shape=umlActor;verticalLabelPosition=bottom;verticalAlign=top;html=1;outlineConnect=0;" vertex="1" parent="1">
          <mxGeometry x="600" y="240" width="60" height="120" as="geometry" />
        </mxCell>
        <mxCell id="AcWjnE61uEaoLL16DM_o-17" value="perputakawan" style="shape=umlActor;verticalLabelPosition=bottom;verticalAlign=top;html=1;outlineConnect=0;" vertex="1" parent="1">
          <mxGeometry x="140" y="250" width="60" height="110" as="geometry" />
        </mxCell>
        <mxCell id="AcWjnE61uEaoLL16DM_o-27" value="" style="endArrow=none;html=1;rounded=0;exitX=0.978;exitY=0.638;exitDx=0;exitDy=0;exitPerimeter=0;" edge="1" parent="1" source="AcWjnE61uEaoLL16DM_o-4" target="AcWjnE61uEaoLL16DM_o-12">
          <mxGeometry width="50" height="50" relative="1" as="geometry">
            <mxPoint x="550" y="190" as="sourcePoint" />
            <mxPoint x="700" y="430" as="targetPoint" />
          </mxGeometry>
        </mxCell>
        <mxCell id="AcWjnE61uEaoLL16DM_o-28" value="" style="endArrow=none;html=1;rounded=0;exitX=0.111;exitY=0.25;exitDx=0;exitDy=0;exitPerimeter=0;" edge="1" parent="1" source="AcWjnE61uEaoLL16DM_o-6" target="AcWjnE61uEaoLL16DM_o-17">
          <mxGeometry width="50" height="50" relative="1" as="geometry">
            <mxPoint x="400" y="320" as="sourcePoint" />
            <mxPoint x="450" y="270" as="targetPoint" />
          </mxGeometry>
        </mxCell>
        <mxCell id="AcWjnE61uEaoLL16DM_o-30" value="" style="endArrow=none;html=1;rounded=0;" edge="1" parent="1" source="AcWjnE61uEaoLL16DM_o-17" target="AcWjnE61uEaoLL16DM_o-8">
          <mxGeometry width="50" height="50" relative="1" as="geometry">
            <mxPoint x="210" y="350" as="sourcePoint" />
            <mxPoint x="260" y="300" as="targetPoint" />
          </mxGeometry>
        </mxCell>
      </root>
    </mxGraphModel>
  </diagram>
  <diagram id="OiLODplwCjInR0Ma90yK" name="Page-2">
    <mxGraphModel dx="1054" dy="566" grid="1" gridSize="10" guides="1" tooltips="1" connect="1" arrows="1" fold="1" page="1" pageScale="1" pageWidth="850" pageHeight="1100" math="0" shadow="0">
      <root>
        <mxCell id="0" />
        <mxCell id="1" parent="0" />
        <mxCell id="zqvB-acjtfjjMzIm2Mpb-1" value="" style="ellipse;whiteSpace=wrap;html=1;" vertex="1" parent="1">
          <mxGeometry x="320" y="50" width="160" height="90" as="geometry" />
        </mxCell>
        <mxCell id="zqvB-acjtfjjMzIm2Mpb-2" value="Mulai" style="text;html=1;strokeColor=none;fillColor=none;align=center;verticalAlign=middle;whiteSpace=wrap;rounded=0;" vertex="1" parent="1">
          <mxGeometry x="365" y="75" width="70" height="40" as="geometry" />
        </mxCell>
        <mxCell id="zqvB-acjtfjjMzIm2Mpb-3" value="" style="shape=parallelogram;perimeter=parallelogramPerimeter;whiteSpace=wrap;html=1;fixedSize=1;" vertex="1" parent="1">
          <mxGeometry x="320" y="210" width="160" height="70" as="geometry" />
        </mxCell>
        <mxCell id="zqvB-acjtfjjMzIm2Mpb-5" value="Input isi catatan pengunjung" style="text;html=1;strokeColor=none;fillColor=none;align=center;verticalAlign=middle;whiteSpace=wrap;rounded=0;" vertex="1" parent="1">
          <mxGeometry x="330" y="225" width="140" height="40" as="geometry" />
        </mxCell>
        <mxCell id="zqvB-acjtfjjMzIm2Mpb-6" value="" style="rounded=0;whiteSpace=wrap;html=1;" vertex="1" parent="1">
          <mxGeometry x="330" y="360" width="150" height="70" as="geometry" />
        </mxCell>
        <mxCell id="zqvB-acjtfjjMzIm2Mpb-7" value="proses catatan pengunjung" style="text;html=1;strokeColor=none;fillColor=none;align=center;verticalAlign=middle;whiteSpace=wrap;rounded=0;" vertex="1" parent="1">
          <mxGeometry x="342.5" y="377.5" width="115" height="35" as="geometry" />
        </mxCell>
        <mxCell id="zqvB-acjtfjjMzIm2Mpb-8" value="" style="rhombus;whiteSpace=wrap;html=1;" vertex="1" parent="1">
          <mxGeometry x="350" y="515" width="100" height="110" as="geometry" />
        </mxCell>
        <mxCell id="zqvB-acjtfjjMzIm2Mpb-9" value="anggota perpustakaan" style="text;html=1;strokeColor=none;fillColor=none;align=center;verticalAlign=middle;whiteSpace=wrap;rounded=0;" vertex="1" parent="1">
          <mxGeometry x="370" y="555" width="60" height="30" as="geometry" />
        </mxCell>
        <mxCell id="zqvB-acjtfjjMzIm2Mpb-10" value="" style="ellipse;whiteSpace=wrap;html=1;" vertex="1" parent="1">
          <mxGeometry x="342.5" y="690" width="130" height="50" as="geometry" />
        </mxCell>
        <mxCell id="zqvB-acjtfjjMzIm2Mpb-11" value="selesai" style="text;html=1;strokeColor=none;fillColor=none;align=center;verticalAlign=middle;whiteSpace=wrap;rounded=0;" vertex="1" parent="1">
          <mxGeometry x="375" y="700" width="60" height="30" as="geometry" />
        </mxCell>
        <mxCell id="zqvB-acjtfjjMzIm2Mpb-12" value="" style="rounded=0;whiteSpace=wrap;html=1;" vertex="1" parent="1">
          <mxGeometry x="587.5" y="505" width="130" height="65" as="geometry" />
        </mxCell>
        <mxCell id="zqvB-acjtfjjMzIm2Mpb-13" value="rekap catatan" style="text;html=1;strokeColor=none;fillColor=none;align=center;verticalAlign=middle;whiteSpace=wrap;rounded=0;" vertex="1" parent="1">
          <mxGeometry x="610" y="520" width="85" height="35" as="geometry" />
        </mxCell>
        <mxCell id="zqvB-acjtfjjMzIm2Mpb-14" value="" style="endArrow=classic;html=1;rounded=0;" edge="1" parent="1">
          <mxGeometry width="50" height="50" relative="1" as="geometry">
            <mxPoint x="399.5" y="200" as="sourcePoint" />
            <mxPoint x="399.5" y="200" as="targetPoint" />
            <Array as="points">
              <mxPoint x="400" y="140" />
            </Array>
          </mxGeometry>
        </mxCell>
        <mxCell id="zqvB-acjtfjjMzIm2Mpb-15" value="" style="endArrow=classic;html=1;rounded=0;exitX=0.5;exitY=1;exitDx=0;exitDy=0;" edge="1" parent="1" source="zqvB-acjtfjjMzIm2Mpb-6" target="zqvB-acjtfjjMzIm2Mpb-8">
          <mxGeometry width="50" height="50" relative="1" as="geometry">
            <mxPoint x="400" y="470" as="sourcePoint" />
            <mxPoint x="450" y="390" as="targetPoint" />
            <Array as="points">
              <mxPoint x="400" y="500" />
            </Array>
          </mxGeometry>
        </mxCell>
        <mxCell id="zqvB-acjtfjjMzIm2Mpb-16" value="" style="endArrow=classic;html=1;rounded=0;exitX=0.94;exitY=0.455;exitDx=0;exitDy=0;exitPerimeter=0;" edge="1" parent="1" source="zqvB-acjtfjjMzIm2Mpb-8">
          <mxGeometry width="50" height="50" relative="1" as="geometry">
            <mxPoint x="470" y="560" as="sourcePoint" />
            <mxPoint x="500" y="560" as="targetPoint" />
          </mxGeometry>
        </mxCell>
        <mxCell id="zqvB-acjtfjjMzIm2Mpb-18" value="yes (perpustakawan)&lt;br&gt;" style="text;html=1;strokeColor=none;fillColor=none;align=center;verticalAlign=middle;whiteSpace=wrap;rounded=0;" vertex="1" parent="1">
          <mxGeometry x="520" y="530" width="40" height="20" as="geometry" />
        </mxCell>
        <mxCell id="zqvB-acjtfjjMzIm2Mpb-22" value="" style="endArrow=classic;html=1;rounded=0;exitX=0.5;exitY=1;exitDx=0;exitDy=0;" edge="1" parent="1" source="zqvB-acjtfjjMzIm2Mpb-12">
          <mxGeometry width="50" height="50" relative="1" as="geometry">
            <mxPoint x="400" y="680" as="sourcePoint" />
            <mxPoint x="480" y="710" as="targetPoint" />
            <Array as="points">
              <mxPoint x="660" y="710" />
            </Array>
          </mxGeometry>
        </mxCell>
        <mxCell id="zqvB-acjtfjjMzIm2Mpb-23" value="" style="endArrow=classic;html=1;rounded=0;" edge="1" parent="1">
          <mxGeometry width="50" height="50" relative="1" as="geometry">
            <mxPoint x="400" y="630" as="sourcePoint" />
            <mxPoint x="410" y="680" as="targetPoint" />
          </mxGeometry>
        </mxCell>
        <mxCell id="zqvB-acjtfjjMzIm2Mpb-24" value="no&lt;br&gt;" style="text;html=1;strokeColor=none;fillColor=none;align=center;verticalAlign=middle;whiteSpace=wrap;rounded=0;" vertex="1" parent="1">
          <mxGeometry x="390" y="640" width="60" height="30" as="geometry" />
        </mxCell>
        <mxCell id="zqvB-acjtfjjMzIm2Mpb-25" value="" style="endArrow=classic;html=1;rounded=0;exitX=0.5;exitY=1;exitDx=0;exitDy=0;entryX=0.5;entryY=0;entryDx=0;entryDy=0;" edge="1" parent="1" source="zqvB-acjtfjjMzIm2Mpb-3" target="zqvB-acjtfjjMzIm2Mpb-6">
          <mxGeometry width="50" height="50" relative="1" as="geometry">
            <mxPoint x="400" y="470" as="sourcePoint" />
            <mxPoint x="450" y="420" as="targetPoint" />
          </mxGeometry>
        </mxCell>
      </root>
    </mxGraphModel>
  </diagram>
</mxfile>
